<svg xmlns="http://www.w3.org/2000/svg" width="1015" height="307" viewBox="0 0 1015 307" fill="none"><path d="M0 2.16804H35.5714V172.321H100.464V196.834H0V2.16804Z" fill="url(#paint0_linear_7001_2)"></path><path d="M65.3646 149.504V2.16804H100.451V149.504H65.3646Z" fill="url(#paint1_linear_7001_2)"></path><path d="M125.934 2.16804H150.69L198.033 113.192V2.16804H227.355V196.834H203.798L156.212 80.5166V196.834H125.934V2.16804Z" fill="url(#paint2_linear_7001_2)"></path><path d="M256.906 196.821V2.16804H292.477V87.7225L330.931 2.16804H364.819L327.564 89.1637L368.657 196.834H333.328L300.639 108.155L292.464 123.051V196.834H256.892L256.906 196.821Z" fill="url(#paint3_linear_7001_2)"></path><path d="M430.655 199.474C417.832 199.474 407.663 196.754 400.134 191.299C392.605 185.857 387.19 178.126 383.917 168.105C380.631 158.098 378.988 146.272 378.988 132.655V67.2906C378.988 53.3503 380.591 41.3361 383.796 31.2478C387.002 21.1596 392.645 13.4285 400.74 8.0544C408.835 2.69378 420.001 0 434.264 0C447.558 0 458.131 2.24931 465.983 6.73445C473.836 11.2196 479.479 17.6712 482.927 26.0758C486.375 34.4804 488.099 44.7033 488.099 56.7175V66.8057H454.212V55.7478C454.212 49.4982 453.767 44.1376 452.892 39.6524C452.003 35.1673 450.252 31.7597 447.598 29.443C444.959 27.1264 440.662 25.9546 434.736 25.9546C428.486 25.9546 423.961 27.4766 421.159 30.5205C418.357 33.5645 416.593 37.5782 415.866 42.5348C415.138 47.5048 414.788 52.9462 414.788 58.8726V140.346C414.788 147.08 415.354 152.926 416.472 157.896C417.59 162.866 419.677 166.664 422.721 169.318C425.765 171.957 430.089 173.277 435.692 173.277C441.295 173.277 445.861 171.836 448.905 168.954C451.949 166.072 454.077 162.071 455.276 156.94C456.474 151.808 457.081 145.733 457.081 138.676V120.412H436.177V98.067H489.042V196.834H466.212L463.573 177.614C461.013 184.026 457.121 189.265 451.922 193.36C446.709 197.441 439.625 199.488 430.655 199.488V199.474Z" fill="url(#paint4_linear_7001_2)"></path><path d="M516.209 196.821V2.16804H562.838C575.97 2.16804 587.069 3.73043 596.12 6.85522C605.171 9.98 612.067 15.3137 616.795 22.8428C621.522 30.3719 623.879 40.6217 623.879 53.6058C623.879 61.4581 623.152 68.5024 621.711 74.7519C620.27 81.0015 617.818 86.3352 614.384 90.7395C610.936 95.1439 606.168 98.5515 600.08 100.949L627.233 196.834H591.662L568.105 107.67H551.767V196.834H516.195L516.209 196.821ZM551.78 85.3116H562.838C569.721 85.3116 575.216 84.3149 579.297 82.308C583.378 80.3011 586.301 77.109 588.065 72.6912C589.83 68.2869 590.705 62.6434 590.705 55.7473C590.705 45.9824 588.901 38.6418 585.304 33.7526C581.695 28.8634 574.853 26.4255 564.751 26.4255H551.767V85.2981L551.78 85.3116Z" fill="url(#paint5_linear_7001_2)"></path><path d="M641.187 196.821L680.112 2.16804H718.081L757.019 196.834H724.101L716.411 151.888H682.523L674.59 196.834H641.187V196.821ZM686.119 129.301H712.558L699.346 47.5852L686.133 129.301H686.119Z" fill="url(#paint6_linear_7001_2)"></path><path d="M776.482 2.16804H833.684C845.375 2.16804 854.871 4.33653 862.158 8.66005C869.444 12.9836 874.818 19.2735 878.253 27.53C881.701 35.7864 883.425 45.7534 883.425 57.4579C883.425 70.1186 881.256 80.3281 876.933 88.0996C872.609 95.8712 866.562 101.515 858.79 105.043C851.019 108.572 841.846 110.337 831.273 110.337H812.053V196.847H776.482V2.16804ZM812.053 85.3116H825.509C831.92 85.3116 836.93 84.3957 840.527 82.5504C844.136 80.7052 846.615 77.742 847.975 73.661C849.335 69.5799 850.022 64.0846 850.022 57.202C850.022 50.3194 849.497 44.42 848.46 40.0156C847.409 35.6113 845.173 32.3653 841.725 30.2776C838.277 28.2034 832.876 27.1528 825.509 27.1528H812.053V85.3116Z" fill="url(#paint7_linear_7001_2)"></path><path d="M903.615 2.16804H938.944V83.6414H978.596V2.16804H1014.17V196.834H978.596V108.882H938.944V196.834H903.615V2.16804Z" fill="url(#paint8_linear_7001_2)"></path><path d="M2.128 290L20.1495 242.12H26.2675L9.044 290H2.128ZM39.1685 290L21.945 242.12H28.3955L46.4835 290H39.1685ZM11.2385 270.914H36.9075V276.766H11.2385V270.914ZM84.0368 290.599C78.2734 290.599 73.6628 289.224 70.2048 286.475C66.7468 283.727 64.7296 279.803 64.1533 274.705H71.0028C71.4018 278.03 72.7318 280.557 74.9928 282.286C77.2538 284.015 80.3128 284.879 84.1698 284.879C87.4061 284.879 89.8444 284.281 91.4848 283.084C93.1694 281.887 94.0118 280.18 94.0118 277.963C94.0118 275.968 93.4576 274.395 92.3493 273.242C91.2409 272.045 89.4898 271.07 87.0958 270.316L78.7833 267.656C74.5273 266.282 71.4018 264.553 69.4068 262.469C67.4118 260.385 66.4143 257.747 66.4143 254.555C66.4143 251.851 67.0793 249.524 68.4093 247.573C69.7836 245.622 71.6899 244.115 74.1283 243.051C76.6109 241.943 79.4926 241.388 82.7733 241.388C87.8273 241.388 91.8616 242.674 94.8763 245.245C97.9353 247.772 99.6864 251.297 100.13 255.819H93.2803C92.7483 252.804 91.5956 250.61 89.8223 249.235C88.0489 247.817 85.6106 247.107 82.5073 247.107C79.5813 247.107 77.2981 247.684 75.6578 248.836C74.0174 249.989 73.1973 251.607 73.1973 253.691C73.1973 255.376 73.7293 256.794 74.7933 257.947C75.9016 259.055 77.7193 260.008 80.2463 260.806L88.9578 263.599C92.9921 264.885 95.9624 266.636 97.8688 268.853C99.8194 271.07 100.795 273.863 100.795 277.232C100.795 281.488 99.3318 284.791 96.4058 287.14C93.4798 289.446 89.3568 290.599 84.0368 290.599ZM122.547 290.665C119.133 290.665 116.118 289.911 113.503 288.404C110.931 286.897 108.914 284.813 107.451 282.153C105.988 279.493 105.257 276.434 105.257 272.976C105.257 269.474 105.966 266.415 107.385 263.799C108.848 261.139 110.887 259.077 113.503 257.614C116.118 256.151 119.111 255.42 122.48 255.42C125.761 255.42 128.598 256.129 130.992 257.548C133.43 258.922 135.292 260.851 136.578 263.333C137.908 265.816 138.573 268.764 138.573 272.178C138.573 272.71 138.551 273.22 138.507 273.707C138.507 274.151 138.462 274.616 138.374 275.104H109.912V269.917H133.519L131.79 271.978C131.79 268.343 130.97 265.572 129.33 263.666C127.689 261.76 125.406 260.806 122.48 260.806C119.332 260.806 116.828 261.893 114.966 264.065C113.148 266.193 112.239 269.163 112.239 272.976C112.239 276.833 113.148 279.848 114.966 282.02C116.828 284.192 119.399 285.278 122.68 285.278C124.675 285.278 126.404 284.879 127.867 284.081C129.33 283.239 130.416 282.02 131.125 280.424H137.642C136.534 283.616 134.65 286.121 131.99 287.938C129.374 289.756 126.226 290.665 122.547 290.665ZM166.272 290C166.05 289.158 165.895 288.227 165.806 287.207C165.762 286.187 165.74 284.946 165.74 283.483H165.407V267.323C165.407 265.151 164.853 263.533 163.745 262.469C162.681 261.361 160.974 260.806 158.624 260.806C156.363 260.806 154.546 261.25 153.171 262.136C151.841 263.023 151.065 264.287 150.844 265.927H144.26C144.571 262.735 146.011 260.186 148.583 258.279C151.154 256.373 154.59 255.42 158.89 255.42C163.324 255.42 166.649 256.462 168.865 258.545C171.082 260.585 172.19 263.599 172.19 267.589V283.483C172.19 284.503 172.257 285.544 172.39 286.608C172.523 287.672 172.722 288.803 172.988 290H166.272ZM154.568 290.665C151.11 290.665 148.361 289.823 146.322 288.138C144.282 286.409 143.263 284.081 143.263 281.155C143.263 278.141 144.327 275.769 146.455 274.04C148.627 272.267 151.73 271.07 155.765 270.449L166.937 268.653V273.508L156.829 275.104C154.568 275.459 152.861 276.057 151.708 276.899C150.6 277.742 150.046 278.961 150.046 280.557C150.046 282.109 150.556 283.283 151.575 284.081C152.639 284.835 154.169 285.212 156.164 285.212C158.824 285.212 161.018 284.569 162.747 283.283C164.521 281.998 165.407 280.38 165.407 278.429L166.272 283.35C165.474 285.7 164.055 287.517 162.016 288.803C159.976 290.044 157.494 290.665 154.568 290.665ZM181.56 290V256.085H188.144V264.53H188.476V290H181.56ZM188.476 272.311L187.612 264.264C188.41 261.383 189.784 259.188 191.735 257.681C193.685 256.174 196.013 255.42 198.717 255.42C199.737 255.42 200.446 255.509 200.845 255.686V262.203C200.623 262.114 200.313 262.07 199.914 262.07C199.515 262.026 199.027 262.003 198.451 262.003C195.126 262.003 192.621 262.868 190.937 264.597C189.296 266.326 188.476 268.897 188.476 272.311ZM220.141 290.665C216.905 290.665 214.023 289.911 211.496 288.404C208.969 286.852 206.974 284.746 205.511 282.086C204.092 279.426 203.383 276.39 203.383 272.976C203.383 269.562 204.092 266.548 205.511 263.932C206.974 261.272 208.969 259.188 211.496 257.681C214.023 256.174 216.882 255.42 220.074 255.42C222.779 255.42 225.195 255.93 227.323 256.949C229.451 257.969 231.202 259.388 232.576 261.205C233.951 263.023 234.837 265.173 235.236 267.656H228.719C228.276 265.661 227.301 264.065 225.793 262.868C224.33 261.671 222.468 261.072 220.207 261.072C218.257 261.072 216.55 261.56 215.087 262.535C213.624 263.511 212.493 264.885 211.695 266.658C210.897 268.432 210.498 270.538 210.498 272.976C210.498 275.37 210.897 277.476 211.695 279.293C212.493 281.111 213.624 282.53 215.087 283.549C216.55 284.525 218.279 285.012 220.274 285.012C222.446 285.012 224.286 284.436 225.793 283.283C227.345 282.086 228.343 280.49 228.786 278.495H235.303C234.86 280.934 233.929 283.062 232.51 284.879C231.136 286.697 229.384 288.116 227.256 289.135C225.128 290.155 222.757 290.665 220.141 290.665ZM242.15 290V242.12H249.066V290H242.15ZM266.223 290V268.188C266.223 265.838 265.625 264.087 264.428 262.934C263.275 261.782 261.546 261.205 259.241 261.205C257.246 261.205 255.473 261.649 253.921 262.535C252.414 263.422 251.217 264.641 250.33 266.193C249.488 267.745 249.066 269.584 249.066 271.712L248.202 263.599C249.31 261.072 251.017 259.077 253.322 257.614C255.628 256.151 258.31 255.42 261.369 255.42C265.004 255.42 267.864 256.44 269.947 258.479C272.031 260.518 273.073 263.223 273.073 266.592V290H266.223ZM292.871 290L310.892 242.12H317.01L299.787 290H292.871ZM329.911 290L312.688 242.12H319.138L337.226 290H329.911ZM301.981 270.914H327.65V276.766H301.981V270.914ZM355.227 290.665C351.281 290.665 348.377 289.756 346.515 287.938C344.698 286.076 343.789 283.35 343.789 279.759V248.304L350.638 245.711V279.825C350.638 281.599 351.104 282.907 352.035 283.749C352.966 284.591 354.473 285.012 356.557 285.012C357.355 285.012 358.064 284.946 358.685 284.813C359.306 284.68 359.838 284.525 360.281 284.347V289.933C359.793 290.155 359.106 290.333 358.219 290.466C357.333 290.599 356.335 290.665 355.227 290.665ZM337.006 261.604V256.085H360.281V261.604H337.006ZM366.838 290V242.12H373.754V290H366.838ZM404.477 290C404.255 289.158 404.1 288.227 404.011 287.207C403.967 286.187 403.945 284.946 403.945 283.483H403.612V267.323C403.612 265.151 403.058 263.533 401.95 262.469C400.886 261.361 399.179 260.806 396.829 260.806C394.568 260.806 392.751 261.25 391.376 262.136C390.046 263.023 389.271 264.287 389.049 265.927H382.465C382.776 262.735 384.217 260.186 386.788 258.279C389.359 256.373 392.795 255.42 397.095 255.42C401.529 255.42 404.854 256.462 407.07 258.545C409.287 260.585 410.395 263.599 410.395 267.589V283.483C410.395 284.503 410.462 285.544 410.595 286.608C410.728 287.672 410.927 288.803 411.193 290H404.477ZM392.773 290.665C389.315 290.665 386.566 289.823 384.527 288.138C382.488 286.409 381.468 284.081 381.468 281.155C381.468 278.141 382.532 275.769 384.66 274.04C386.832 272.267 389.936 271.07 393.97 270.449L405.142 268.653V273.508L395.034 275.104C392.773 275.459 391.066 276.057 389.913 276.899C388.805 277.742 388.251 278.961 388.251 280.557C388.251 282.109 388.761 283.283 389.78 284.081C390.844 284.835 392.374 285.212 394.369 285.212C397.029 285.212 399.223 284.569 400.952 283.283C402.726 281.998 403.612 280.38 403.612 278.429L404.477 283.35C403.679 285.7 402.26 287.517 400.221 288.803C398.182 290.044 395.699 290.665 392.773 290.665ZM431.611 290.665C427.178 290.665 423.654 289.69 421.038 287.739C418.422 285.788 416.937 283.04 416.582 279.493H422.966C423.277 281.444 424.163 282.951 425.626 284.015C427.134 285.035 429.173 285.544 431.744 285.544C434.005 285.544 435.734 285.145 436.931 284.347C438.128 283.549 438.727 282.419 438.727 280.956C438.727 279.892 438.372 279.005 437.663 278.296C436.998 277.542 435.668 276.922 433.673 276.434L428.22 275.17C424.806 274.328 422.257 273.087 420.572 271.446C418.932 269.762 418.112 267.7 418.112 265.262C418.112 262.203 419.242 259.809 421.503 258.08C423.809 256.307 426.956 255.42 430.946 255.42C434.892 255.42 438.062 256.307 440.456 258.08C442.894 259.853 444.269 262.336 444.579 265.528H438.195C437.929 263.932 437.153 262.713 435.867 261.87C434.626 260.984 432.919 260.54 430.747 260.54C428.708 260.54 427.134 260.917 426.025 261.671C424.961 262.38 424.429 263.378 424.429 264.663C424.429 265.727 424.828 266.614 425.626 267.323C426.469 268.033 427.843 268.631 429.749 269.119L435.335 270.515C438.572 271.313 441.01 272.621 442.65 274.439C444.291 276.212 445.111 278.362 445.111 280.889C445.111 283.948 443.914 286.342 441.52 288.071C439.17 289.801 435.867 290.665 431.611 290.665ZM485.787 290.665C482.462 290.665 479.38 290.067 476.543 288.869C473.706 287.628 471.245 285.921 469.162 283.749C467.122 281.532 465.526 278.917 464.374 275.902C463.221 272.887 462.645 269.584 462.645 265.993C462.645 262.402 463.199 259.122 464.307 256.151C465.46 253.137 467.056 250.543 469.095 248.371C471.179 246.154 473.639 244.447 476.477 243.25C479.314 242.053 482.395 241.455 485.72 241.455C489.444 241.455 492.791 242.209 495.762 243.716C498.732 245.179 501.148 247.263 503.01 249.967C504.916 252.671 506.091 255.819 506.535 259.41H499.619C499.042 255.642 497.513 252.716 495.03 250.632C492.592 248.504 489.511 247.44 485.787 247.44C482.639 247.44 479.846 248.216 477.408 249.767C475.014 251.275 473.152 253.425 471.822 256.218C470.492 258.967 469.827 262.225 469.827 265.993C469.827 269.717 470.492 272.998 471.822 275.835C473.196 278.628 475.08 280.801 477.474 282.352C479.868 283.904 482.639 284.68 485.787 284.68C489.511 284.68 492.614 283.638 495.097 281.554C497.624 279.426 499.153 276.478 499.685 272.71H506.668C506.18 276.345 504.983 279.515 503.077 282.219C501.17 284.879 498.732 286.963 495.762 288.47C492.836 289.933 489.511 290.665 485.787 290.665ZM528.693 290.665C525.235 290.665 522.198 289.911 519.583 288.404C516.967 286.852 514.928 284.746 513.465 282.086C512.002 279.382 511.27 276.323 511.27 272.91C511.27 269.451 512.002 266.415 513.465 263.799C514.972 261.183 517.011 259.144 519.583 257.681C522.198 256.174 525.235 255.42 528.693 255.42C532.196 255.42 535.255 256.174 537.87 257.681C540.486 259.144 542.503 261.183 543.922 263.799C545.385 266.415 546.116 269.451 546.116 272.91C546.116 276.323 545.385 279.382 543.922 282.086C542.503 284.746 540.486 286.852 537.87 288.404C535.255 289.911 532.196 290.665 528.693 290.665ZM528.693 285.012C530.777 285.012 532.572 284.503 534.08 283.483C535.631 282.463 536.851 281.045 537.737 279.227C538.624 277.409 539.067 275.281 539.067 272.843C539.067 269.208 538.092 266.348 536.141 264.264C534.235 262.136 531.752 261.072 528.693 261.072C525.679 261.072 523.196 262.136 521.245 264.264C519.339 266.392 518.386 269.252 518.386 272.843C518.386 275.281 518.807 277.409 519.649 279.227C520.536 281.045 521.755 282.463 523.307 283.483C524.903 284.503 526.698 285.012 528.693 285.012ZM553.22 290V256.085H559.803V264.065H560.136V290H553.22ZM576.096 290V267.855C576.096 265.55 575.564 263.865 574.5 262.801C573.436 261.737 571.906 261.205 569.911 261.205C568.049 261.205 566.365 261.649 564.857 262.535C563.394 263.378 562.242 264.575 561.399 266.126C560.557 267.634 560.136 269.429 560.136 271.513L559.271 263.599C560.38 261.072 562.042 259.077 564.259 257.614C566.52 256.151 569.047 255.42 571.84 255.42C575.209 255.42 577.891 256.395 579.886 258.346C581.926 260.297 582.945 262.868 582.945 266.06V290H576.096ZM598.972 290V267.855C598.972 265.55 598.418 263.865 597.309 262.801C596.245 261.737 594.716 261.205 592.721 261.205C590.903 261.205 589.241 261.649 587.733 262.535C586.27 263.378 585.095 264.575 584.209 266.126C583.366 267.634 582.945 269.429 582.945 271.513L581.549 263.599C582.701 261.072 584.43 259.077 586.736 257.614C589.085 256.151 591.701 255.42 594.583 255.42C597.996 255.42 600.723 256.417 602.762 258.412C604.802 260.363 605.821 262.979 605.821 266.259V290H598.972ZM633.197 290.599C630.005 290.599 627.345 289.845 625.217 288.337C623.133 286.786 621.759 284.636 621.094 281.887L622.025 281.754V303.633H615.109V256.085H621.692V263.865L621.027 263.666C621.737 261.095 623.244 259.077 625.549 257.614C627.855 256.151 630.559 255.42 633.662 255.42C636.721 255.42 639.359 256.151 641.576 257.614C643.837 259.077 645.566 261.117 646.763 263.732C648.004 266.348 648.625 269.407 648.625 272.91C648.625 276.456 647.982 279.559 646.696 282.219C645.411 284.879 643.615 286.941 641.31 288.404C639.005 289.867 636.3 290.599 633.197 290.599ZM631.734 284.879C634.749 284.879 637.143 283.815 638.916 281.688C640.689 279.559 641.576 276.633 641.576 272.91C641.576 269.23 640.689 266.37 638.916 264.331C637.143 262.247 634.726 261.205 631.667 261.205C628.653 261.205 626.237 262.269 624.419 264.397C622.646 266.481 621.759 269.385 621.759 273.109C621.759 276.744 622.646 279.626 624.419 281.754C626.237 283.838 628.675 284.879 631.734 284.879ZM676.971 290C676.749 289.158 676.594 288.227 676.506 287.207C676.461 286.187 676.439 284.946 676.439 283.483H676.107V267.323C676.107 265.151 675.552 263.533 674.444 262.469C673.38 261.361 671.673 260.806 669.324 260.806C667.063 260.806 665.245 261.25 663.871 262.136C662.541 263.023 661.765 264.287 661.543 265.927H654.96C655.27 262.735 656.711 260.186 659.282 258.279C661.853 256.373 665.289 255.42 669.59 255.42C674.023 255.42 677.348 256.462 679.565 258.545C681.781 260.585 682.89 263.599 682.89 267.589V283.483C682.89 284.503 682.956 285.544 683.089 286.608C683.222 287.672 683.422 288.803 683.688 290H676.971ZM665.267 290.665C661.809 290.665 659.06 289.823 657.021 288.138C654.982 286.409 653.962 284.081 653.962 281.155C653.962 278.141 655.026 275.769 657.154 274.04C659.326 272.267 662.43 271.07 666.464 270.449L677.636 268.653V273.508L667.528 275.104C665.267 275.459 663.56 276.057 662.408 276.899C661.299 277.742 660.745 278.961 660.745 280.557C660.745 282.109 661.255 283.283 662.275 284.081C663.339 284.835 664.868 285.212 666.863 285.212C669.523 285.212 671.718 284.569 673.447 283.283C675.22 281.998 676.107 280.38 676.107 278.429L676.971 283.35C676.173 285.7 674.754 287.517 672.715 288.803C670.676 290.044 668.193 290.665 665.267 290.665ZM692.259 290V256.085H698.843V264.065H699.175V290H692.259ZM716.332 290V268.188C716.332 265.838 715.734 264.087 714.537 262.934C713.384 261.782 711.655 261.205 709.35 261.205C707.355 261.205 705.581 261.649 704.03 262.535C702.522 263.422 701.325 264.641 700.439 266.193C699.596 267.745 699.175 269.584 699.175 271.712L698.311 263.599C699.419 261.072 701.126 259.077 703.431 257.614C705.737 256.151 708.419 255.42 711.478 255.42C715.113 255.42 717.973 256.44 720.056 258.479C722.14 260.518 723.182 263.223 723.182 266.592V290H716.332ZM733.686 303.633L741.866 284.946L743.262 282.751L753.57 256.085H760.752L740.802 303.633H733.686ZM741.533 290L727.036 256.085H734.551L746.853 286.608L741.533 290Z" fill="white"></path><defs><linearGradient id="paint0_linear_7001_2" x1="6.74485e-08" y1="5.43472" x2="1014.39" y2="8.26382" gradientUnits="userSpaceOnUse"><stop stop-color="#FF268E"></stop><stop offset="0.3" stop-color="#FF2D84"></stop><stop offset="0.698331" stop-color="#FF644D"></stop><stop offset="1" stop-color="#FD8460"></stop></linearGradient><linearGradient id="paint1_linear_7001_2" x1="6.74485e-08" y1="5.43472" x2="1014.39" y2="8.26382" gradientUnits="userSpaceOnUse"><stop stop-color="#FF268E"></stop><stop offset="0.3" stop-color="#FF2D84"></stop><stop offset="0.698331" stop-color="#FF644D"></stop><stop offset="1" stop-color="#FD8460"></stop></linearGradient><linearGradient id="paint2_linear_7001_2" x1="6.74485e-08" y1="5.43472" x2="1014.39" y2="8.26382" gradientUnits="userSpaceOnUse"><stop stop-color="#FF268E"></stop><stop offset="0.3" stop-color="#FF2D84"></stop><stop offset="0.698331" stop-color="#FF644D"></stop><stop offset="1" stop-color="#FD8460"></stop></linearGradient><linearGradient id="paint3_linear_7001_2" x1="6.74485e-08" y1="5.43472" x2="1014.39" y2="8.26382" gradientUnits="userSpaceOnUse"><stop stop-color="#FF268E"></stop><stop offset="0.3" stop-color="#FF2D84"></stop><stop offset="0.698331" stop-color="#FF644D"></stop><stop offset="1" stop-color="#FD8460"></stop></linearGradient><linearGradient id="paint4_linear_7001_2" x1="6.74485e-08" y1="5.43472" x2="1014.39" y2="8.26382" gradientUnits="userSpaceOnUse"><stop stop-color="#FF268E"></stop><stop offset="0.3" stop-color="#FF2D84"></stop><stop offset="0.698331" stop-color="#FF644D"></stop><stop offset="1" stop-color="#FD8460"></stop></linearGradient><linearGradient id="paint5_linear_7001_2" x1="6.74485e-08" y1="5.43472" x2="1014.39" y2="8.26382" gradientUnits="userSpaceOnUse"><stop stop-color="#FF268E"></stop><stop offset="0.3" stop-color="#FF2D84"></stop><stop offset="0.698331" stop-color="#FF644D"></stop><stop offset="1" stop-color="#FD8460"></stop></linearGradient><linearGradient id="paint6_linear_7001_2" x1="6.74485e-08" y1="5.43472" x2="1014.39" y2="8.26382" gradientUnits="userSpaceOnUse"><stop stop-color="#FF268E"></stop><stop offset="0.3" stop-color="#FF2D84"></stop><stop offset="0.698331" stop-color="#FF644D"></stop><stop offset="1" stop-color="#FD8460"></stop></linearGradient><linearGradient id="paint7_linear_7001_2" x1="6.74485e-08" y1="5.43472" x2="1014.39" y2="8.26382" gradientUnits="userSpaceOnUse"><stop stop-color="#FF268E"></stop><stop offset="0.3" stop-color="#FF2D84"></stop><stop offset="0.698331" stop-color="#FF644D"></stop><stop offset="1" stop-color="#FD8460"></stop></linearGradient><linearGradient id="paint8_linear_7001_2" x1="6.74485e-08" y1="5.43472" x2="1014.39" y2="8.26382" gradientUnits="userSpaceOnUse"><stop stop-color="#FF268E"></stop><stop offset="0.3" stop-color="#FF2D84"></stop><stop offset="0.698331" stop-color="#FF644D"></stop><stop offset="1" stop-color="#FD8460"></stop></linearGradient></defs></svg>